<mxfile host="app.diagrams.net" modified="2024-02-08T16:18:08.618Z" agent="Mozilla/5.0 (Macintosh; Intel Mac OS X 10_15_7) AppleWebKit/537.36 (KHTML, like Gecko) Chrome/121.0.0.0 Safari/537.36" etag="3nFJgaAhQWTJjzBgUpKw" version="23.1.1" type="github">
  <diagram name="Page-1" id="8EdlpMxALrFfVQjvrNC_">
    <mxGraphModel dx="2954" dy="1121" grid="1" gridSize="10" guides="1" tooltips="1" connect="1" arrows="1" fold="1" page="1" pageScale="1" pageWidth="850" pageHeight="1100" math="0" shadow="0">
      <root>
        <mxCell id="0" />
        <mxCell id="1" parent="0" />
        <mxCell id="54KrkxWT26yLG8-wknio-8" style="edgeStyle=none;rounded=0;orthogonalLoop=1;jettySize=auto;html=1;entryX=0;entryY=0.5;entryDx=0;entryDy=0;fontSize=24;fontColor=#006600;startArrow=classic;startFill=1;strokeColor=#E6E6E6;" edge="1" parent="1">
          <mxGeometry relative="1" as="geometry">
            <mxPoint x="553" y="674" as="targetPoint" />
            <mxPoint x="230" y="674" as="sourcePoint" />
          </mxGeometry>
        </mxCell>
        <mxCell id="54KrkxWT26yLG8-wknio-120" value="" style="endArrow=classic;dashed=1;html=1;dashPattern=1 3;strokeWidth=2;rounded=0;startArrow=classic;startFill=1;endFill=1;strokeColor=#660000;" edge="1" parent="1">
          <mxGeometry width="50" height="50" relative="1" as="geometry">
            <mxPoint x="1500" y="100" as="sourcePoint" />
            <mxPoint x="1870" y="100" as="targetPoint" />
          </mxGeometry>
        </mxCell>
        <mxCell id="54KrkxWT26yLG8-wknio-141" value="" style="endArrow=classic;dashed=1;html=1;dashPattern=1 3;strokeWidth=2;rounded=0;startArrow=classic;startFill=1;endFill=1;strokeColor=#660000;" edge="1" parent="1">
          <mxGeometry width="50" height="50" relative="1" as="geometry">
            <mxPoint x="44.5" y="80" as="sourcePoint" />
            <mxPoint x="334.5" y="82.25" as="targetPoint" />
          </mxGeometry>
        </mxCell>
        <mxCell id="54KrkxWT26yLG8-wknio-142" value="Wagon Developers" style="text;html=1;align=center;verticalAlign=middle;resizable=0;points=[];autosize=1;strokeColor=none;fillColor=none;fontSize=16;fontStyle=1" vertex="1" parent="1">
          <mxGeometry x="110" y="23" width="170" height="30" as="geometry" />
        </mxCell>
        <mxCell id="54KrkxWT26yLG8-wknio-145" value="" style="group" vertex="1" connectable="0" parent="1">
          <mxGeometry x="540" y="500" width="470" height="270" as="geometry" />
        </mxCell>
        <mxCell id="54KrkxWT26yLG8-wknio-11" value="" style="ellipse;shape=cloud;whiteSpace=wrap;html=1;fillColor=#fff2cc;strokeColor=#d6b656;" vertex="1" parent="54KrkxWT26yLG8-wknio-145">
          <mxGeometry width="470" height="270" as="geometry" />
        </mxCell>
        <mxCell id="54KrkxWT26yLG8-wknio-144" value="" style="group" vertex="1" connectable="0" parent="54KrkxWT26yLG8-wknio-145">
          <mxGeometry x="110" y="34" width="270" height="218" as="geometry" />
        </mxCell>
        <mxCell id="54KrkxWT26yLG8-wknio-20" value="ZCloud" style="text;html=1;align=center;verticalAlign=middle;resizable=0;points=[];autosize=1;strokeColor=none;fillColor=none;fontSize=24;fontStyle=1;fontColor=#006600;" vertex="1" parent="54KrkxWT26yLG8-wknio-144">
          <mxGeometry x="70" y="102.75" width="110" height="40" as="geometry" />
        </mxCell>
        <mxCell id="54KrkxWT26yLG8-wknio-22" value="" style="sketch=0;points=[[0,0,0],[0.25,0,0],[0.5,0,0],[0.75,0,0],[1,0,0],[0,1,0],[0.25,1,0],[0.5,1,0],[0.75,1,0],[1,1,0],[0,0.25,0],[0,0.5,0],[0,0.75,0],[1,0.25,0],[1,0.5,0],[1,0.75,0]];outlineConnect=0;fontColor=#232F3E;gradientColor=#F78E04;gradientDirection=north;fillColor=#D05C17;strokeColor=#ffffff;dashed=0;verticalLabelPosition=bottom;verticalAlign=top;align=center;html=1;fontSize=12;fontStyle=0;aspect=fixed;shape=mxgraph.aws4.resourceIcon;resIcon=mxgraph.aws4.ecs;" vertex="1" parent="54KrkxWT26yLG8-wknio-144">
          <mxGeometry y="94.75" width="48" height="48" as="geometry" />
        </mxCell>
        <mxCell id="54KrkxWT26yLG8-wknio-23" value="" style="outlineConnect=0;dashed=0;verticalLabelPosition=bottom;verticalAlign=top;align=center;html=1;shape=mxgraph.aws3.bucket_with_objects;fillColor=#E05243;gradientColor=none;" vertex="1" parent="54KrkxWT26yLG8-wknio-144">
          <mxGeometry x="220" y="93" width="50" height="51.5" as="geometry" />
        </mxCell>
        <mxCell id="54KrkxWT26yLG8-wknio-24" value="" style="outlineConnect=0;dashed=0;verticalLabelPosition=bottom;verticalAlign=top;align=center;html=1;shape=mxgraph.aws3.rds;fillColor=#2E73B8;gradientColor=none;" vertex="1" parent="54KrkxWT26yLG8-wknio-144">
          <mxGeometry x="140" y="23" width="50" height="61" as="geometry" />
        </mxCell>
        <mxCell id="54KrkxWT26yLG8-wknio-25" value="" style="outlineConnect=0;dashed=0;verticalLabelPosition=bottom;verticalAlign=top;align=center;html=1;shape=mxgraph.aws3.ec2;fillColor=#F58534;gradientColor=none;" vertex="1" parent="54KrkxWT26yLG8-wknio-144">
          <mxGeometry x="30" width="60" height="63" as="geometry" />
        </mxCell>
        <mxCell id="54KrkxWT26yLG8-wknio-26" value="AWS Cloud" style="sketch=0;outlineConnect=0;fontColor=#232F3E;gradientColor=none;strokeColor=#232F3E;fillColor=#ffffff;dashed=0;verticalLabelPosition=bottom;verticalAlign=top;align=center;html=1;fontSize=12;fontStyle=0;aspect=fixed;shape=mxgraph.aws4.resourceIcon;resIcon=mxgraph.aws4.aws_cloud;" vertex="1" parent="54KrkxWT26yLG8-wknio-144">
          <mxGeometry x="155" y="158" width="60" height="60" as="geometry" />
        </mxCell>
        <mxCell id="54KrkxWT26yLG8-wknio-33" style="edgeStyle=none;rounded=0;orthogonalLoop=1;jettySize=auto;html=1;entryX=0.07;entryY=0.478;entryDx=0;entryDy=0;entryPerimeter=0;fontSize=24;fontColor=#006600;startArrow=classic;startFill=1;strokeColor=#E6E6E6;" edge="1" parent="54KrkxWT26yLG8-wknio-144" target="54KrkxWT26yLG8-wknio-11">
          <mxGeometry relative="1" as="geometry">
            <mxPoint x="163" y="109.25" as="sourcePoint" />
          </mxGeometry>
        </mxCell>
        <mxCell id="54KrkxWT26yLG8-wknio-146" value="Pipeliens + Wagon" style="rounded=1;whiteSpace=wrap;html=1;" vertex="1" parent="1">
          <mxGeometry x="420" y="120" width="180" height="80" as="geometry" />
        </mxCell>
        <mxCell id="54KrkxWT26yLG8-wknio-158" value="" style="group" vertex="1" connectable="0" parent="1">
          <mxGeometry x="168" y="280" width="112" height="112" as="geometry" />
        </mxCell>
        <mxCell id="54KrkxWT26yLG8-wknio-153" value="" style="ellipse;whiteSpace=wrap;html=1;aspect=fixed;" vertex="1" parent="54KrkxWT26yLG8-wknio-158">
          <mxGeometry width="112" height="112" as="geometry" />
        </mxCell>
        <mxCell id="54KrkxWT26yLG8-wknio-148" value="" style="shape=umlActor;verticalLabelPosition=bottom;verticalAlign=top;html=1;outlineConnect=0;" vertex="1" parent="54KrkxWT26yLG8-wknio-158">
          <mxGeometry x="23" y="18" width="30" height="60" as="geometry" />
        </mxCell>
        <mxCell id="54KrkxWT26yLG8-wknio-149" value="" style="shape=umlActor;verticalLabelPosition=bottom;verticalAlign=top;html=1;outlineConnect=0;" vertex="1" parent="54KrkxWT26yLG8-wknio-158">
          <mxGeometry x="43" y="41" width="30" height="60" as="geometry" />
        </mxCell>
        <mxCell id="54KrkxWT26yLG8-wknio-150" value="" style="shape=umlActor;verticalLabelPosition=bottom;verticalAlign=top;html=1;outlineConnect=0;" vertex="1" parent="54KrkxWT26yLG8-wknio-158">
          <mxGeometry x="63" y="28" width="30" height="60" as="geometry" />
        </mxCell>
        <mxCell id="54KrkxWT26yLG8-wknio-159" value="" style="group" vertex="1" connectable="0" parent="1">
          <mxGeometry x="167" y="593" width="112" height="112" as="geometry" />
        </mxCell>
        <mxCell id="54KrkxWT26yLG8-wknio-160" value="" style="ellipse;whiteSpace=wrap;html=1;aspect=fixed;" vertex="1" parent="54KrkxWT26yLG8-wknio-159">
          <mxGeometry width="112" height="112" as="geometry" />
        </mxCell>
        <mxCell id="54KrkxWT26yLG8-wknio-161" value="" style="shape=umlActor;verticalLabelPosition=bottom;verticalAlign=top;html=1;outlineConnect=0;" vertex="1" parent="54KrkxWT26yLG8-wknio-159">
          <mxGeometry x="23" y="18" width="30" height="60" as="geometry" />
        </mxCell>
        <mxCell id="54KrkxWT26yLG8-wknio-162" value="" style="shape=umlActor;verticalLabelPosition=bottom;verticalAlign=top;html=1;outlineConnect=0;" vertex="1" parent="54KrkxWT26yLG8-wknio-159">
          <mxGeometry x="43" y="41" width="30" height="60" as="geometry" />
        </mxCell>
        <mxCell id="54KrkxWT26yLG8-wknio-163" value="" style="shape=umlActor;verticalLabelPosition=bottom;verticalAlign=top;html=1;outlineConnect=0;" vertex="1" parent="54KrkxWT26yLG8-wknio-159">
          <mxGeometry x="63" y="28" width="30" height="60" as="geometry" />
        </mxCell>
        <mxCell id="54KrkxWT26yLG8-wknio-164" value="" style="group" vertex="1" connectable="0" parent="1">
          <mxGeometry x="168" y="940" width="112" height="112" as="geometry" />
        </mxCell>
        <mxCell id="54KrkxWT26yLG8-wknio-165" value="" style="ellipse;whiteSpace=wrap;html=1;aspect=fixed;" vertex="1" parent="54KrkxWT26yLG8-wknio-164">
          <mxGeometry width="112" height="112" as="geometry" />
        </mxCell>
        <mxCell id="54KrkxWT26yLG8-wknio-166" value="" style="shape=umlActor;verticalLabelPosition=bottom;verticalAlign=top;html=1;outlineConnect=0;" vertex="1" parent="54KrkxWT26yLG8-wknio-164">
          <mxGeometry x="23" y="18" width="30" height="60" as="geometry" />
        </mxCell>
        <mxCell id="54KrkxWT26yLG8-wknio-167" value="" style="shape=umlActor;verticalLabelPosition=bottom;verticalAlign=top;html=1;outlineConnect=0;" vertex="1" parent="54KrkxWT26yLG8-wknio-164">
          <mxGeometry x="43" y="41" width="30" height="60" as="geometry" />
        </mxCell>
        <mxCell id="54KrkxWT26yLG8-wknio-168" value="" style="shape=umlActor;verticalLabelPosition=bottom;verticalAlign=top;html=1;outlineConnect=0;" vertex="1" parent="54KrkxWT26yLG8-wknio-164">
          <mxGeometry x="63" y="28" width="30" height="60" as="geometry" />
        </mxCell>
        <mxCell id="54KrkxWT26yLG8-wknio-169" value="Team A" style="text;html=1;align=center;verticalAlign=middle;resizable=0;points=[];autosize=1;strokeColor=none;fillColor=none;" vertex="1" parent="1">
          <mxGeometry x="193" y="400" width="60" height="30" as="geometry" />
        </mxCell>
        <mxCell id="54KrkxWT26yLG8-wknio-170" value="Team B" style="text;html=1;align=center;verticalAlign=middle;resizable=0;points=[];autosize=1;strokeColor=none;fillColor=none;" vertex="1" parent="1">
          <mxGeometry x="194" y="720" width="60" height="30" as="geometry" />
        </mxCell>
        <mxCell id="54KrkxWT26yLG8-wknio-171" value="Team C" style="text;html=1;align=center;verticalAlign=middle;resizable=0;points=[];autosize=1;strokeColor=none;fillColor=none;" vertex="1" parent="1">
          <mxGeometry x="193" y="902" width="60" height="30" as="geometry" />
        </mxCell>
        <mxCell id="54KrkxWT26yLG8-wknio-176" style="edgeStyle=none;rounded=0;orthogonalLoop=1;jettySize=auto;html=1;entryX=0.25;entryY=0.25;entryDx=0;entryDy=0;entryPerimeter=0;" edge="1" parent="1" source="54KrkxWT26yLG8-wknio-153" target="54KrkxWT26yLG8-wknio-11">
          <mxGeometry relative="1" as="geometry" />
        </mxCell>
        <mxCell id="54KrkxWT26yLG8-wknio-178" style="edgeStyle=none;rounded=0;orthogonalLoop=1;jettySize=auto;html=1;entryX=0.16;entryY=0.55;entryDx=0;entryDy=0;entryPerimeter=0;" edge="1" parent="1" source="54KrkxWT26yLG8-wknio-160" target="54KrkxWT26yLG8-wknio-11">
          <mxGeometry relative="1" as="geometry" />
        </mxCell>
        <mxCell id="54KrkxWT26yLG8-wknio-179" style="edgeStyle=none;rounded=0;orthogonalLoop=1;jettySize=auto;html=1;entryX=0.31;entryY=0.8;entryDx=0;entryDy=0;entryPerimeter=0;" edge="1" parent="1" source="54KrkxWT26yLG8-wknio-165" target="54KrkxWT26yLG8-wknio-11">
          <mxGeometry relative="1" as="geometry" />
        </mxCell>
        <mxCell id="54KrkxWT26yLG8-wknio-180" value="" style="group" vertex="1" connectable="0" parent="1">
          <mxGeometry x="1310" y="260" width="112" height="112" as="geometry" />
        </mxCell>
        <mxCell id="54KrkxWT26yLG8-wknio-181" value="" style="ellipse;whiteSpace=wrap;html=1;aspect=fixed;" vertex="1" parent="54KrkxWT26yLG8-wknio-180">
          <mxGeometry width="112" height="112" as="geometry" />
        </mxCell>
        <mxCell id="54KrkxWT26yLG8-wknio-182" value="" style="shape=umlActor;verticalLabelPosition=bottom;verticalAlign=top;html=1;outlineConnect=0;" vertex="1" parent="54KrkxWT26yLG8-wknio-180">
          <mxGeometry x="23" y="18" width="30" height="60" as="geometry" />
        </mxCell>
        <mxCell id="54KrkxWT26yLG8-wknio-183" value="" style="shape=umlActor;verticalLabelPosition=bottom;verticalAlign=top;html=1;outlineConnect=0;" vertex="1" parent="54KrkxWT26yLG8-wknio-180">
          <mxGeometry x="43" y="41" width="30" height="60" as="geometry" />
        </mxCell>
        <mxCell id="54KrkxWT26yLG8-wknio-184" value="" style="shape=umlActor;verticalLabelPosition=bottom;verticalAlign=top;html=1;outlineConnect=0;" vertex="1" parent="54KrkxWT26yLG8-wknio-180">
          <mxGeometry x="63" y="28" width="30" height="60" as="geometry" />
        </mxCell>
        <mxCell id="54KrkxWT26yLG8-wknio-185" value="Network Engineer" style="text;html=1;align=center;verticalAlign=middle;resizable=0;points=[];autosize=1;strokeColor=none;fillColor=none;" vertex="1" parent="1">
          <mxGeometry x="1306" y="380" width="120" height="30" as="geometry" />
        </mxCell>
      </root>
    </mxGraphModel>
  </diagram>
</mxfile>
